<svg width="48" height="48" viewBox="0 0 48 48" fill="none" xmlns="http://www.w3.org/2000/svg">
  <rect width="48" height="48" rx="16" fill="#167B2F"/>
  <path d="M34.8 17.6C34.8 25.125 28.425 31.5 20.9 31.5C18.9273 31.4901 16.9816 31.0163 15.2125 30.1207C14.9801 29.9978 14.7571 29.8599 14.545 29.7075C13.465 29.4213 12.6 28.4963 12.6 27.3C12.6 26.1037 13.465 25.1787 14.545 24.8925C16.4981 26.0208 18.6872 26.6002 20.9 26.565C25.6598 26.565 29.515 22.7098 29.515 17.95C29.515 17.8688 29.514 17.7878 29.5121 17.7069C29.5116 17.6669 29.5113 17.6269 29.5113 17.5869C29.5113 16.3906 30.3763 15.4656 31.4563 15.1794C32.5363 14.8931 33.6063 15.5406 33.845 16.6019C34.0013 17.1219 34.8 17.6 34.8 17.6Z" fill="white"/>
  <path d="M23.2 17.6C23.2 20.2673 21.0273 22.44 18.36 22.44C17.1513 22.44 16.0987 21.98 15.36 21.32C15.36 21.32 13.2 20 13.2 18C13.2 15.3327 15.3727 13.16 18.04 13.16C20.7073 13.16 23.2 15.7327 23.2 17.6Z" fill="#84BA90"/>
</svg>
